<?xml version="1.0"?>
<svg xmlns="http://www.w3.org/2000/svg" width="50" height="50" viewBox="0 0 50 50">
    <path d="M 10 0 C 6.691 0 4 2.691 4 6 C 4 9.309 6.691 12 10 12 C 13.309 12 16 9.309 16 6 C 16 2.691 13.309 0 10 0 z M 38.03125 0 C 34.73125 0 32.03125 2.7 32.03125 6 C 32.03125 9.3 34.73125 12 38.03125 12 C 41.33125 12 44.03125 9.3 44.03125 6 C 44.03125 2.7 41.33125 0 38.03125 0 z M 22.59375 6.90625 C 21.59375 6.90625 21 7.69375 21 8.59375 C 21 10.39375 24.5 13 24.5 13 C 24.5 13 28 10.39375 28 8.59375 C 28 7.69375 27.1875 6.90625 26.1875 6.90625 C 25.1875 6.90625 24.40625 7.8125 24.40625 7.8125 C 24.40625 7.8125 23.59375 6.90625 22.59375 6.90625 z M 5.5 13 C 2.467 13 0 15.467 0 18.5 L 0 33 C 0 34.104 0.897 35 2 35 C 3.103 35 4 34.104 4 33 L 4 21 C 4 20.729 4.229 20.5 4.5 20.5 C 4.771 20.5 5 20.729 5 21 L 5 47.3125 C 5 48.8765 5.84125 50 7.40625 50 C 8.88825 50 10 48.8515 10 47.3125 L 10 33.6875 C 10 33.4115 10.224 33.1875 10.5 33.1875 C 10.776 33.1875 11 33.4115 11 33.6875 L 11 42 L 11 44 L 11 47.59375 C 11.004 47.59975 11.02725 47.58775 11.03125 47.59375 C 11.16825 48.97675 12.21175 50 13.59375 50 C 15.15775 50 16 48.8765 16 47.3125 L 16 44 L 16 42 L 16 21 C 16 20.729 16.229 20.5 16.5 20.5 C 16.771 20.5 16.95475 20.701 17.09375 21 L 21.15625 29 C 21.64725 29.86 22.05525 30.938 23.15625 31 C 24.53025 31.078 25.995 29.90125 25.125 27.78125 C 24.885 27.21025 20.0625 16.5 20.0625 16.5 C 19.3085 14.561 17.556 13.238 15.5 13 L 5.5 13 z M 34.8125 13 C 33.0455 13 31.3205 13.987 30.4375 15.5 C 30.1735 15.948 29.8795 16.455 29.5625 17 C 29.5625 17 29.493 17.1095 29.375 17.3125 C 29.138 17.7215 28.878 18.15375 28.625 18.59375 C 27.826 19.97775 26.65875 22.05425 25.59375 23.90625 C 26.32375 25.53825 26.88275 26.82725 26.96875 27.03125 C 27.18175 27.55125 27.29275 28.02975 27.34375 28.46875 L 30.625 23.65625 C 30.633 23.62825 31.9245 21.74375 31.9375 21.71875 L 31.9375 21.6875 C 32.0195 21.5235 32.18 21.40625 32.375 21.40625 C 32.651 21.40625 32.875 21.63025 32.875 21.90625 C 32.875 21.94725 32.85275 21.99325 32.84375 22.03125 L 28.09375 35.59375 C 27.99275 35.89475 28.07375 36.2 28.21875 36.5 C 28.41875 36.8 28.69375 37 29.09375 37 L 38.0625 37 L 39.71875 37 L 45.96875 37 C 46.36775 37 46.676 36.8 46.875 36.5 C 47.021 36.198 47.06775 35.89375 46.96875 35.59375 L 42.21875 22.03125 C 42.20975 21.99325 42.21875 21.9785 42.21875 21.9375 C 42.21875 21.6615 42.44275 21.4375 42.71875 21.4375 C 42.91375 21.4375 43.07425 21.5235 43.15625 21.6875 L 43.15625 21.71875 C 43.16925 21.74375 43.1805 21.75325 43.1875 21.78125 L 46.5 31.1875 C 46.8 31.7875 47.11975 32.40625 48.21875 32.40625 C 50.12075 32.40525 50.25 30.9 49.75 29.5 C 49.75 29.4 45.75 17 45.75 17 C 45.15 14.8 43.75625 13 40.65625 13 L 38.03125 13 L 38 13 L 37.53125 13 L 36.53125 13 L 34.8125 13 z M 33.03125 38 L 33.03125 48 C 33.03125 49.1 33.93125 50 35.03125 50 C 36.13125 50 37.03125 49.1 37.03125 48 L 37.03125 38 L 33.03125 38 z M 38.03125 38 L 38.03125 48 C 38.03125 49.1 38.93125 50 40.03125 50 C 41.13125 50 42.03125 49.1 42.03125 48 L 42.03125 38 L 38.03125 38 z"/>
</svg>
